<svg xmlns="http://www.w3.org/2000/svg" xmlns:xlink="http://www.w3.org/1999/xlink" viewBox="0 0 794 1123" width="794" height="1123"><rect width="100%" height="100%" fill="white"></rect><path d="M 548.000,782.125 C 545.025,781.327 545.000,781.625 542.000,781.125" stroke-width="5.274" stroke="black" fill="none" stroke-linecap="round"></path><path d="M 542.000,781.125 C 537.500,781.125 537.525,780.827 533.000,781.125" stroke-width="3.979" stroke="black" fill="none" stroke-linecap="round"></path><path d="M 533.000,781.125 C 525.500,781.125 525.500,781.125 518.000,781.125" stroke-width="3.229" stroke="black" fill="none" stroke-linecap="round"></path><path d="M 518.000,781.125 C 506.000,781.125 506.000,781.125 494.000,781.125" stroke-width="2.544" stroke="black" fill="none" stroke-linecap="round"></path><path d="M 494.000,781.125 C 480.000,781.125 480.000,781.125 466.000,781.125" stroke-width="2.294" stroke="black" fill="none" stroke-linecap="round"></path><path d="M 466.000,781.125 C 453.000,781.125 453.000,781.125 440.000,781.125" stroke-width="2.299" stroke="black" fill="none" stroke-linecap="round"></path><path d="M 440.000,781.125 C 430.000,781.125 430.000,781.125 420.000,781.125" stroke-width="2.436" stroke="black" fill="none" stroke-linecap="round"></path><path d="M 423.000,783.125 C 423.000,780.125 423.000,780.125 423.000,777.125" stroke-width="5.581" stroke="black" fill="none" stroke-linecap="round"></path><path d="M 423.000,777.125 C 423.000,773.625 423.000,773.625 423.000,770.125" stroke-width="4.888" stroke="black" fill="none" stroke-linecap="round"></path><path d="M 423.000,770.125 C 423.000,767.125 423.000,767.125 423.000,764.125" stroke-width="4.813" stroke="black" fill="none" stroke-linecap="round"></path><path d="M 423.000,764.125 C 423.000,760.125 423.000,760.125 423.000,756.125" stroke-width="4.959" stroke="black" fill="none" stroke-linecap="round"></path><path d="M 423.000,756.125 C 423.000,752.625 423.000,752.625 423.000,749.125" stroke-width="4.749" stroke="black" fill="none" stroke-linecap="round"></path><path d="M 423.000,749.125 C 423.000,745.625 423.000,745.625 423.000,742.125" stroke-width="4.690" stroke="black" fill="none" stroke-linecap="round"></path><path d="M 423.000,742.125 C 423.000,739.125 423.000,739.125 423.000,736.125" stroke-width="4.304" stroke="black" fill="none" stroke-linecap="round"></path><path d="M 423.000,736.125 C 423.000,732.125 423.000,732.125 423.000,728.125" stroke-width="4.493" stroke="black" fill="none" stroke-linecap="round"></path><path d="M 423.000,728.125 C 423.000,724.625 423.000,724.625 423.000,721.125" stroke-width="4.793" stroke="black" fill="none" stroke-linecap="round"></path><path d="M 423.000,721.125 C 423.000,713.892 423.000,717.625 423.000,714.125" stroke-width="5.004" stroke="black" fill="none" stroke-linecap="round"></path><path d="M 423.000,714.125 C 423.305,718.155 423.000,714.392 423.000,722.125" stroke-width="5.291" stroke="black" fill="none" stroke-linecap="round"></path><path d="M 423.000,722.125 C 422.211,724.596 422.805,724.655 422.000,727.125" stroke-width="4.976" stroke="black" fill="none" stroke-linecap="round"></path><path d="M 422.000,727.125 C 422.000,730.625 421.711,730.596 422.000,734.125" stroke-width="4.955" stroke="black" fill="none" stroke-linecap="round"></path><path d="M 422.000,734.125 C 422.000,737.125 422.000,737.125 422.000,740.125" stroke-width="5.002" stroke="black" fill="none" stroke-linecap="round"></path><path d="M 422.000,740.125 C 422.000,743.625 422.000,743.625 422.000,747.125" stroke-width="4.954" stroke="black" fill="none" stroke-linecap="round"></path><path d="M 422.000,747.125 C 422.000,750.125 422.000,750.125 422.000,753.125" stroke-width="5.094" stroke="black" fill="none" stroke-linecap="round"></path><path d="M 422.000,753.125 C 422.000,756.625 422.000,756.625 422.000,760.125" stroke-width="4.981" stroke="black" fill="none" stroke-linecap="round"></path><path d="M 422.000,760.125 C 422.000,763.625 422.000,763.625 422.000,767.125" stroke-width="5.059" stroke="black" fill="none" stroke-linecap="round"></path><path d="M 422.000,767.125 C 421.730,770.152 422.000,770.125 422.000,773.125" stroke-width="5.403" stroke="black" fill="none" stroke-linecap="round"></path><path d="M 422.000,773.125 C 422.500,775.625 422.230,775.652 423.000,778.125" stroke-width="5.271" stroke="black" fill="none" stroke-linecap="round"></path><path d="M 423.000,778.125 C 423.544,780.617 423.500,780.625 424.000,783.125" stroke-width="5.166" stroke="black" fill="none" stroke-linecap="round"></path><path d="M 424.000,783.125 C 424.768,786.103 424.544,786.117 425.000,789.125" stroke-width="5.218" stroke="black" fill="none" stroke-linecap="round"></path><path d="M 425.000,789.125 C 424.234,795.870 425.268,792.603 425.000,796.125" stroke-width="5.417" stroke="black" fill="none" stroke-linecap="round"></path><path d="M 425.000,796.125 C 426.681,793.204 425.734,796.370 428.000,790.125" stroke-width="5.499" stroke="black" fill="none" stroke-linecap="round"></path><path d="M 428.000,790.125 C 429.747,786.196 429.681,786.204 431.000,782.125" stroke-width="5.004" stroke="black" fill="none" stroke-linecap="round"></path><path d="M 431.000,782.125 C 431.500,779.625 431.747,779.696 432.000,777.125" stroke-width="5.067" stroke="black" fill="none" stroke-linecap="round"></path><path d="M 432.000,777.125 C 432.544,774.633 432.500,774.625 433.000,772.125" stroke-width="5.174" stroke="black" fill="none" stroke-linecap="round"></path><path d="M 433.000,772.125 C 433.456,769.117 433.544,769.133 434.000,766.125" stroke-width="5.157" stroke="black" fill="none" stroke-linecap="round"></path><path d="M 434.000,766.125 C 434.500,761.125 434.456,763.617 435.000,761.125" stroke-width="5.261" stroke="black" fill="none" stroke-linecap="round"></path><path d="M 435.000,761.125 C 436.000,763.625 435.500,761.125 436.000,766.125" stroke-width="5.445" stroke="black" fill="none" stroke-linecap="round"></path><path d="M 436.000,766.125 C 435.500,768.625 436.000,768.625 435.000,771.125" stroke-width="5.352" stroke="black" fill="none" stroke-linecap="round"></path><path d="M 435.000,771.125 C 434.230,773.598 434.500,773.625 434.000,776.125" stroke-width="5.361" stroke="black" fill="none" stroke-linecap="round"></path><path d="M 434.000,776.125 C 434.000,779.125 433.730,779.098 434.000,782.125" stroke-width="5.385" stroke="black" fill="none" stroke-linecap="round"></path><path d="M 434.000,782.125 C 433.711,785.654 434.000,785.625 434.000,789.125" stroke-width="5.414" stroke="black" fill="none" stroke-linecap="round"></path><path d="M 434.000,789.125 C 434.789,794.546 434.211,791.654 435.000,794.125" stroke-width="5.370" stroke="black" fill="none" stroke-linecap="round"></path><path d="M 435.000,794.125 C 434.711,790.596 435.289,793.546 435.000,787.125" stroke-width="5.495" stroke="black" fill="none" stroke-linecap="round"></path><path d="M 435.000,787.125 C 435.067,784.458 435.211,784.596 436.000,782.125" stroke-width="5.460" stroke="black" fill="none" stroke-linecap="round"></path><path d="M 436.000,782.125 C 437.605,779.683 437.067,779.458 439.000,777.125" stroke-width="5.349" stroke="black" fill="none" stroke-linecap="round"></path><path d="M 439.000,777.125 C 440.281,773.990 440.605,774.183 442.000,771.125" stroke-width="5.182" stroke="black" fill="none" stroke-linecap="round"></path><path d="M 442.000,771.125 C 444.318,766.670 443.281,768.990 445.000,767.125" stroke-width="5.179" stroke="black" fill="none" stroke-linecap="round"></path><path d="M 445.000,767.125 C 445.000,770.125 445.818,767.670 445.000,773.125" stroke-width="5.398" stroke="black" fill="none" stroke-linecap="round"></path><path d="M 445.000,773.125 C 445.000,776.125 445.000,776.125 445.000,779.125" stroke-width="5.338" stroke="black" fill="none" stroke-linecap="round"></path><path d="M 445.000,779.125 C 444.730,784.855 445.000,782.125 445.000,785.125" stroke-width="5.350" stroke="black" fill="none" stroke-linecap="round"></path><path d="M 445.000,785.125 C 445.770,779.895 445.230,785.355 446.000,780.125" stroke-width="5.509" stroke="black" fill="none" stroke-linecap="round"></path><path d="M 446.000,780.125 C 446.270,783.152 446.270,780.395 446.000,786.125" stroke-width="5.546" stroke="black" fill="none" stroke-linecap="round"></path><path d="M 446.000,786.125 C 445.230,788.598 445.770,788.652 445.000,791.125" stroke-width="5.538" stroke="black" fill="none" stroke-linecap="round"></path><path d="M 445.000,791.125 C 444.473,794.227 444.730,794.098 445.000,797.125" stroke-width="5.566" stroke="black" fill="none" stroke-linecap="round"></path><path d="M 445.000,797.125 C 446.527,802.361 445.473,799.726 447.000,802.125" stroke-width="5.551" stroke="black" fill="none" stroke-linecap="round"></path><path d="M 447.000,802.125 C 446.770,799.109 447.527,801.862 447.000,796.125" stroke-width="5.559" stroke="black" fill="none" stroke-linecap="round"></path><path d="M 447.000,796.125 C 446.904,792.413 447.270,792.609 448.000,789.125" stroke-width="5.473" stroke="black" fill="none" stroke-linecap="round"></path><path d="M 448.000,789.125 C 449.605,786.683 448.904,786.413 451.000,784.125" stroke-width="5.419" stroke="black" fill="none" stroke-linecap="round"></path><path d="M 451.000,784.125 C 452.864,781.250 452.605,781.183 454.000,778.125" stroke-width="5.452" stroke="black" fill="none" stroke-linecap="round"></path><path d="M 454.000,778.125 C 454.067,775.458 454.864,775.750 455.000,773.125" stroke-width="5.555" stroke="black" fill="none" stroke-linecap="round"></path><path d="M 455.000,773.125 C 456.605,770.683 456.067,770.458 458.000,768.125" stroke-width="5.130" stroke="black" fill="none" stroke-linecap="round"></path><path d="M 458.000,768.125 C 459.613,765.176 459.605,765.183 461.000,762.125" stroke-width="4.820" stroke="black" fill="none" stroke-linecap="round"></path><path d="M 461.000,762.125 C 462.230,759.693 462.113,759.676 463.000,757.125" stroke-width="4.816" stroke="black" fill="none" stroke-linecap="round"></path><path d="M 463.000,757.125 C 463.382,754.596 463.730,754.693 464.000,752.125" stroke-width="4.869" stroke="black" fill="none" stroke-linecap="round"></path><path d="M 464.000,752.125 C 465.000,748.625 464.882,748.596 466.000,745.125" stroke-width="4.683" stroke="black" fill="none" stroke-linecap="round"></path><path d="M 466.000,745.125 C 467.452,741.688 467.000,741.625 468.000,738.125" stroke-width="4.631" stroke="black" fill="none" stroke-linecap="round"></path><path d="M 468.000,738.125 C 468.000,735.125 468.452,735.188 468.000,732.125" stroke-width="4.991" stroke="black" fill="none" stroke-linecap="round"></path><path d="M 468.000,732.125 C 468.000,729.125 468.000,729.125 468.000,726.125" stroke-width="5.013" stroke="black" fill="none" stroke-linecap="round"></path><path d="M 468.000,726.125 C 467.593,720.718 468.000,723.625 468.000,721.125" stroke-width="5.186" stroke="black" fill="none" stroke-linecap="round"></path><path d="M 468.000,721.125 C 469.490,724.556 468.593,721.718 470.000,728.125" stroke-width="5.405" stroke="black" fill="none" stroke-linecap="round"></path><path d="M 470.000,728.125 C 470.000,731.625 470.490,731.556 470.000,735.125" stroke-width="4.864" stroke="black" fill="none" stroke-linecap="round"></path><path d="M 470.000,735.125 C 470.311,740.151 470.000,740.125 470.000,745.125" stroke-width="4.872" stroke="black" fill="none" stroke-linecap="round"></path><path d="M 470.000,745.125 C 469.683,748.166 469.811,748.151 469.000,751.125" stroke-width="4.801" stroke="black" fill="none" stroke-linecap="round"></path><path d="M 469.000,751.125 C 467.761,754.574 468.183,754.666 467.000,758.125" stroke-width="4.646" stroke="black" fill="none" stroke-linecap="round"></path><path d="M 467.000,758.125 C 466.538,761.631 466.261,761.574 466.000,765.125" stroke-width="4.831" stroke="black" fill="none" stroke-linecap="round"></path><path d="M 466.000,765.125 C 465.683,768.166 465.538,768.131 465.000,771.125" stroke-width="5.055" stroke="black" fill="none" stroke-linecap="round"></path><path d="M 465.000,771.125 C 463.447,774.548 464.183,774.666 463.000,778.125" stroke-width="4.752" stroke="black" fill="none" stroke-linecap="round"></path><path d="M 463.000,778.125 C 463.000,782.625 462.447,782.548 463.000,787.125" stroke-width="4.965" stroke="black" fill="none" stroke-linecap="round"></path><path d="M 463.000,787.125 C 463.000,790.625 463.000,790.625 463.000,794.125" stroke-width="5.208" stroke="black" fill="none" stroke-linecap="round"></path><path d="M 463.000,794.125 C 463.000,797.125 463.000,797.125 463.000,800.125" stroke-width="5.339" stroke="black" fill="none" stroke-linecap="round"></path><path d="M 463.000,800.125 C 463.270,805.855 463.000,803.125 463.000,806.125" stroke-width="5.429" stroke="black" fill="none" stroke-linecap="round"></path><path d="M 463.000,806.125 C 462.000,803.633 462.770,806.355 462.000,801.125" stroke-width="5.508" stroke="black" fill="none" stroke-linecap="round"></path><path d="M 462.000,801.125 C 462.049,797.978 462.000,798.133 463.000,795.125" stroke-width="5.367" stroke="black" fill="none" stroke-linecap="round"></path><path d="M 463.000,795.125 C 464.613,792.176 464.049,791.978 466.000,789.125" stroke-width="5.295" stroke="black" fill="none" stroke-linecap="round"></path><path d="M 466.000,789.125 C 467.000,786.625 467.113,786.676 468.000,784.125" stroke-width="5.215" stroke="black" fill="none" stroke-linecap="round"></path><path d="M 468.000,784.125 C 468.800,781.526 469.000,781.625 470.000,779.125" stroke-width="5.272" stroke="black" fill="none" stroke-linecap="round"></path><path d="M 470.000,779.125 C 471.700,776.724 471.300,776.526 473.000,774.125" stroke-width="5.302" stroke="black" fill="none" stroke-linecap="round"></path><path d="M 473.000,774.125 C 473.887,768.902 474.200,771.724 475.000,769.125" stroke-width="5.143" stroke="black" fill="none" stroke-linecap="round"></path><path d="M 475.000,769.125 C 477.266,771.944 476.387,769.402 478.000,775.125" stroke-width="5.425" stroke="black" fill="none" stroke-linecap="round"></path><path d="M 478.000,775.125 C 478.000,778.625 478.766,778.444 478.000,782.125" stroke-width="5.366" stroke="black" fill="none" stroke-linecap="round"></path><path d="M 478.000,782.125 C 477.473,785.226 478.000,785.125 478.000,788.125" stroke-width="5.460" stroke="black" fill="none" stroke-linecap="round"></path><path d="M 478.000,788.125 C 479.296,790.542 478.473,790.726 480.000,793.125" stroke-width="5.397" stroke="black" fill="none" stroke-linecap="round"></path><path d="M 480.000,793.125 C 480.748,799.125 480.796,796.042 481.000,799.125" stroke-width="5.465" stroke="black" fill="none" stroke-linecap="round"></path><path d="M 481.000,799.125 C 480.473,796.024 481.248,799.125 481.000,793.125" stroke-width="5.531" stroke="black" fill="none" stroke-linecap="round"></path><path d="M 481.000,793.125 C 482.000,790.625 481.473,790.524 483.000,788.125" stroke-width="5.443" stroke="black" fill="none" stroke-linecap="round"></path><path d="M 483.000,788.125 C 484.000,785.625 484.000,785.625 485.000,783.125" stroke-width="5.369" stroke="black" fill="none" stroke-linecap="round"></path><path d="M 485.000,783.125 C 486.230,780.693 486.000,780.625 487.000,778.125" stroke-width="5.459" stroke="black" fill="none" stroke-linecap="round"></path><path d="M 487.000,778.125 C 487.330,775.580 487.730,775.693 488.000,773.125" stroke-width="5.414" stroke="black" fill="none" stroke-linecap="round"></path><path d="M 488.000,773.125 C 488.604,767.683 488.830,770.080 490.000,767.125" stroke-width="5.380" stroke="black" fill="none" stroke-linecap="round"></path><path d="M 490.000,767.125 C 491.896,768.917 491.104,766.683 493.000,771.125" stroke-width="5.485" stroke="black" fill="none" stroke-linecap="round"></path><path d="M 493.000,771.125 C 494.170,774.080 494.396,773.917 495.000,777.125" stroke-width="5.302" stroke="black" fill="none" stroke-linecap="round"></path><path d="M 495.000,777.125 C 495.770,779.598 495.670,779.580 496.000,782.125" stroke-width="5.162" stroke="black" fill="none" stroke-linecap="round"></path><path d="M 496.000,782.125 C 495.752,785.146 496.270,785.098 496.000,788.125" stroke-width="5.387" stroke="black" fill="none" stroke-linecap="round"></path><path d="M 496.000,788.125 C 496.748,791.104 496.252,791.146 497.000,794.125" stroke-width="5.484" stroke="black" fill="none" stroke-linecap="round"></path><path d="M 497.000,794.125 C 497.000,800.125 497.248,797.104 497.000,800.125" stroke-width="5.556" stroke="black" fill="none" stroke-linecap="round"></path><path d="M 497.000,800.125 C 496.292,796.958 497.000,800.125 497.000,794.125" stroke-width="5.554" stroke="black" fill="none" stroke-linecap="round"></path><path d="M 497.000,794.125 C 498.864,791.250 497.792,790.958 500.000,788.125" stroke-width="5.124" stroke="black" fill="none" stroke-linecap="round"></path><path d="M 500.000,788.125 C 500.581,785.639 500.864,785.750 501.000,783.125" stroke-width="4.972" stroke="black" fill="none" stroke-linecap="round"></path><path d="M 501.000,783.125 C 501.419,779.611 501.581,779.639 502.000,776.125" stroke-width="4.941" stroke="black" fill="none" stroke-linecap="round"></path><path d="M 502.000,776.125 C 502.330,773.580 502.419,773.611 503.000,771.125" stroke-width="5.054" stroke="black" fill="none" stroke-linecap="round"></path><path d="M 503.000,771.125 C 504.170,768.170 503.830,768.080 505.000,765.125" stroke-width="4.799" stroke="black" fill="none" stroke-linecap="round"></path><path d="M 505.000,765.125 C 505.770,762.652 505.670,762.670 506.000,760.125" stroke-width="4.863" stroke="black" fill="none" stroke-linecap="round"></path><path d="M 506.000,760.125 C 505.548,757.062 506.270,757.152 506.000,754.125" stroke-width="5.065" stroke="black" fill="none" stroke-linecap="round"></path><path d="M 506.000,754.125 C 506.850,750.574 506.548,750.562 508.000,747.125" stroke-width="4.946" stroke="black" fill="none" stroke-linecap="round"></path><path d="M 508.000,747.125 C 509.527,744.726 508.850,744.574 510.000,742.125" stroke-width="5.122" stroke="black" fill="none" stroke-linecap="round"></path><path d="M 510.000,742.125 C 509.730,739.098 510.527,739.227 510.000,736.125" stroke-width="5.044" stroke="black" fill="none" stroke-linecap="round"></path><path d="M 510.000,736.125 C 510.770,733.652 510.230,733.598 511.000,731.125" stroke-width="5.416" stroke="black" fill="none" stroke-linecap="round"></path><path d="M 511.000,731.125 C 511.000,728.125 511.270,728.152 511.000,725.125" stroke-width="5.482" stroke="black" fill="none" stroke-linecap="round"></path><path d="M 511.000,725.125 C 511.000,719.125 511.000,722.125 511.000,719.125" stroke-width="5.509" stroke="black" fill="none" stroke-linecap="round"></path><path d="M 511.000,719.125 C 511.000,722.125 511.000,719.125 511.000,725.125" stroke-width="5.524" stroke="black" fill="none" stroke-linecap="round"></path><path d="M 511.000,725.125 C 511.000,729.125 511.000,729.125 511.000,733.125" stroke-width="5.044" stroke="black" fill="none" stroke-linecap="round"></path><path d="M 511.000,733.125 C 511.000,737.125 511.000,737.125 511.000,741.125" stroke-width="4.906" stroke="black" fill="none" stroke-linecap="round"></path><path d="M 511.000,741.125 C 511.000,745.125 511.000,745.125 511.000,749.125" stroke-width="4.989" stroke="black" fill="none" stroke-linecap="round"></path><path d="M 511.000,749.125 C 511.268,752.647 511.000,752.625 511.000,756.125" stroke-width="4.942" stroke="black" fill="none" stroke-linecap="round"></path><path d="M 511.000,756.125 C 510.544,759.133 510.768,759.147 510.000,762.125" stroke-width="5.000" stroke="black" fill="none" stroke-linecap="round"></path><path d="M 510.000,762.125 C 509.730,764.693 509.544,764.633 509.000,767.125" stroke-width="4.937" stroke="black" fill="none" stroke-linecap="round"></path><path d="M 509.000,767.125 C 507.473,769.524 508.230,769.693 507.000,772.125" stroke-width="5.028" stroke="black" fill="none" stroke-linecap="round"></path><path d="M 507.000,772.125 C 507.000,775.125 506.473,775.024 507.000,778.125" stroke-width="5.117" stroke="black" fill="none" stroke-linecap="round"></path><path d="M 507.000,778.125 C 507.000,781.125 507.000,781.125 507.000,784.125" stroke-width="5.330" stroke="black" fill="none" stroke-linecap="round"></path><path d="M 507.000,784.125 C 506.730,787.152 507.000,787.125 507.000,790.125" stroke-width="5.381" stroke="black" fill="none" stroke-linecap="round"></path><path d="M 507.000,790.125 C 507.544,792.617 507.230,792.652 508.000,795.125" stroke-width="5.351" stroke="black" fill="none" stroke-linecap="round"></path><path d="M 508.000,795.125 C 508.748,798.104 508.544,798.117 509.000,801.125" stroke-width="5.374" stroke="black" fill="none" stroke-linecap="round"></path><path d="M 509.000,801.125 C 508.579,807.546 509.248,804.104 509.000,807.125" stroke-width="5.517" stroke="black" fill="none" stroke-linecap="round"></path><path d="M 509.000,807.125 C 509.790,803.057 509.579,806.546 511.000,799.125" stroke-width="5.539" stroke="black" fill="none" stroke-linecap="round"></path><path d="M 511.000,799.125 C 512.230,796.693 511.790,796.557 513.000,794.125" stroke-width="5.043" stroke="black" fill="none" stroke-linecap="round"></path><path d="M 513.000,794.125 C 513.270,791.557 513.730,791.693 514.000,789.125" stroke-width="5.295" stroke="black" fill="none" stroke-linecap="round"></path><path d="M 514.000,789.125 C 515.296,786.708 514.770,786.557 516.000,784.125" stroke-width="5.289" stroke="black" fill="none" stroke-linecap="round"></path><path d="M 516.000,784.125 C 516.265,781.067 516.796,781.208 517.000,778.125" stroke-width="5.160" stroke="black" fill="none" stroke-linecap="round"></path><path d="M 517.000,778.125 C 518.170,775.170 517.765,775.067 519.000,772.125" stroke-width="5.310" stroke="black" fill="none" stroke-linecap="round"></path><path d="M 519.000,772.125 C 519.544,766.897 519.670,769.670 520.000,767.125" stroke-width="5.496" stroke="black" fill="none" stroke-linecap="round"></path><path d="M 520.000,767.125 C 520.768,770.103 520.544,767.397 521.000,773.125" stroke-width="5.526" stroke="black" fill="none" stroke-linecap="round"></path><path d="M 521.000,773.125 C 521.000,776.625 521.268,776.603 521.000,780.125" stroke-width="5.435" stroke="black" fill="none" stroke-linecap="round"></path><path d="M 521.000,780.125 C 521.000,783.125 521.000,783.125 521.000,786.125" stroke-width="5.326" stroke="black" fill="none" stroke-linecap="round"></path><path d="M 521.000,786.125 C 520.730,789.152 521.000,789.125 521.000,792.125" stroke-width="5.396" stroke="black" fill="none" stroke-linecap="round"></path><path d="M 521.000,792.125 C 521.500,797.125 521.230,794.652 522.000,797.125" stroke-width="5.405" stroke="black" fill="none" stroke-linecap="round"></path><path d="M 522.000,797.125 C 522.500,794.625 522.500,797.125 523.000,792.125" stroke-width="5.516" stroke="black" fill="none" stroke-linecap="round"></path><path d="M 523.000,792.125 C 523.544,789.633 523.500,789.625 524.000,787.125" stroke-width="5.360" stroke="black" fill="none" stroke-linecap="round"></path><path d="M 524.000,787.125 C 524.204,784.042 524.544,784.133 525.000,781.125" stroke-width="5.273" stroke="black" fill="none" stroke-linecap="round"></path><path d="M 525.000,781.125 C 526.080,778.654 525.704,778.542 527.000,776.125" stroke-width="5.355" stroke="black" fill="none" stroke-linecap="round"></path><path d="M 527.000,776.125 C 528.170,773.170 528.080,773.154 529.000,770.125" stroke-width="5.318" stroke="black" fill="none" stroke-linecap="round"></path><path d="M 529.000,770.125 C 529.330,764.902 529.670,767.670 530.000,765.125" stroke-width="5.508" stroke="black" fill="none" stroke-linecap="round"></path><path d="M 530.000,765.125 C 531.487,768.046 530.830,765.402 532.000,771.125" stroke-width="5.529" stroke="black" fill="none" stroke-linecap="round"></path><path d="M 532.000,771.125 C 532.000,774.125 532.487,774.046 532.000,777.125" stroke-width="5.311" stroke="black" fill="none" stroke-linecap="round"></path><path d="M 532.000,777.125 C 532.000,780.125 532.000,780.125 532.000,783.125" stroke-width="5.227" stroke="black" fill="none" stroke-linecap="round"></path><path d="M 532.000,783.125 C 531.239,786.336 532.000,786.125 532.000,789.125" stroke-width="5.274" stroke="black" fill="none" stroke-linecap="round"></path><path d="M 532.000,789.125 C 533.700,791.526 532.739,791.836 535.000,794.125" stroke-width="5.463" stroke="black" fill="none" stroke-linecap="round"></path><path d="M 535.000,794.125 C 536.527,799.361 536.200,796.526 537.000,799.125" stroke-width="5.428" stroke="black" fill="none" stroke-linecap="round"></path><path d="M 537.000,799.125 C 536.473,796.024 537.527,798.861 537.000,793.125" stroke-width="5.534" stroke="black" fill="none" stroke-linecap="round"></path><path d="M 537.000,793.125 C 537.401,790.181 537.473,790.524 539.000,788.125" stroke-width="5.543" stroke="black" fill="none" stroke-linecap="round"></path><path d="M 539.000,788.125 C 541.750,786.375 540.901,785.681 544.000,784.125" stroke-width="5.578" stroke="black" fill="none" stroke-linecap="round"></path><path d="M 544.000,784.125 C 546.370,781.841 546.250,781.875 548.000,779.125" stroke-width="5.343" stroke="black" fill="none" stroke-linecap="round"></path><path d="M 548.000,779.125 C 549.296,776.708 549.370,776.841 550.000,774.125" stroke-width="5.155" stroke="black" fill="none" stroke-linecap="round"></path><path d="M 550.000,774.125 C 550.317,771.084 550.796,771.208 551.000,768.125" stroke-width="4.880" stroke="black" fill="none" stroke-linecap="round"></path><path d="M 551.000,768.125 C 552.553,764.702 551.817,764.584 553.000,761.125" stroke-width="4.687" stroke="black" fill="none" stroke-linecap="round"></path><path d="M 553.000,761.125 C 553.000,756.625 553.553,756.702 553.000,752.125" stroke-width="4.536" stroke="black" fill="none" stroke-linecap="round"></path><path d="M 553.000,752.125 C 553.000,746.125 553.000,746.125 553.000,740.125" stroke-width="4.215" stroke="black" fill="none" stroke-linecap="round"></path><path d="M 553.000,740.125 C 553.000,736.625 553.000,736.625 553.000,733.125" stroke-width="4.504" stroke="black" fill="none" stroke-linecap="round"></path><path d="M 553.000,733.125 C 553.000,729.625 553.000,729.625 553.000,726.125" stroke-width="4.599" stroke="black" fill="none" stroke-linecap="round"></path><path d="M 553.000,726.125 C 552.770,723.109 553.000,723.125 553.000,720.125" stroke-width="4.725" stroke="black" fill="none" stroke-linecap="round"></path><path d="M 553.000,720.125 C 553.730,716.641 553.270,716.609 554.000,713.125" stroke-width="4.865" stroke="black" fill="none" stroke-linecap="round"></path></svg>