<svg xmlns="http://www.w3.org/2000/svg" xmlns:xlink="http://www.w3.org/1999/xlink" viewBox="0 0 794 1123" width="794" height="1123"><rect width="100%" height="100%" fill="white"></rect><path d="M 769.344,858.125 C 765.860,858.761 765.844,858.625 762.344,859.125" stroke-width="5.427" stroke="black" fill="none" stroke-linecap="round"></path><path d="M 762.344,859.125 C 751.261,859.514 751.360,860.261 740.344,861.125" stroke-width="3.008" stroke="black" fill="none" stroke-linecap="round"></path><path d="M 740.344,861.125 C 720.736,864.123 720.761,864.014 701.344,868.125" stroke-width="1.945" stroke="black" fill="none" stroke-linecap="round"></path><path d="M 701.344,868.125 C 689.420,871.461 689.236,870.623 677.344,874.125" stroke-width="2.123" stroke="black" fill="none" stroke-linecap="round"></path><path d="M 677.344,874.125 C 655.140,877.841 655.420,878.961 633.344,883.125" stroke-width="1.682" stroke="black" fill="none" stroke-linecap="round"></path><path d="M 633.344,883.125 C 622.427,886.907 622.140,885.841 611.344,890.125" stroke-width="2.073" stroke="black" fill="none" stroke-linecap="round"></path><path d="M 611.344,890.125 C 591.132,894.984 591.427,895.907 571.344,901.125" stroke-width="1.746" stroke="black" fill="none" stroke-linecap="round"></path><path d="M 571.344,901.125 C 562.495,905.075 562.132,903.984 553.344,908.125" stroke-width="2.285" stroke="black" fill="none" stroke-linecap="round"></path><path d="M 553.344,908.125 C 542.831,911.080 542.995,911.575 532.344,914.125" stroke-width="2.350" stroke="black" fill="none" stroke-linecap="round"></path><path d="M 532.344,914.125 C 527.383,915.781 527.331,915.580 522.344,917.125" stroke-width="3.044" stroke="black" fill="none" stroke-linecap="round"></path><path d="M 522.344,917.125 C 516.763,918.125 519.883,917.781 517.344,918.125" stroke-width="3.841" stroke="black" fill="none" stroke-linecap="round"></path><path d="M 517.344,918.125 C 521.403,917.913 518.263,918.125 525.344,917.125" stroke-width="4.659" stroke="black" fill="none" stroke-linecap="round"></path><path d="M 525.344,917.125 C 528.780,915.673 528.903,916.413 532.344,915.125" stroke-width="4.130" stroke="black" fill="none" stroke-linecap="round"></path><path d="M 532.344,915.125 C 535.396,915.546 535.280,914.673 538.344,915.125" stroke-width="4.103" stroke="black" fill="none" stroke-linecap="round"></path><path d="M 538.344,915.125 C 542.573,914.713 542.396,914.546 546.344,913.125" stroke-width="4.697" stroke="black" fill="none" stroke-linecap="round"></path><path d="M 546.344,913.125 C 551.975,910.346 552.073,910.713 557.344,907.125" stroke-width="3.571" stroke="black" fill="none" stroke-linecap="round"></path><path d="M 557.344,907.125 C 564.101,902.199 564.475,902.846 571.344,898.125" stroke-width="2.959" stroke="black" fill="none" stroke-linecap="round"></path><path d="M 571.344,898.125 C 580.657,894.176 580.101,893.199 589.344,889.125" stroke-width="2.680" stroke="black" fill="none" stroke-linecap="round"></path><path d="M 589.344,889.125 C 601.727,880.935 602.157,881.676 614.344,873.125" stroke-width="2.204" stroke="black" fill="none" stroke-linecap="round"></path><path d="M 614.344,873.125 C 622.836,868.112 622.727,867.935 631.344,863.125" stroke-width="2.470" stroke="black" fill="none" stroke-linecap="round"></path><path d="M 631.344,863.125 C 637.633,860.032 637.336,859.612 643.344,856.125" stroke-width="2.825" stroke="black" fill="none" stroke-linecap="round"></path><path d="M 643.344,856.125 C 647.102,853.367 647.133,853.532 650.344,850.125" stroke-width="3.354" stroke="black" fill="none" stroke-linecap="round"></path><path d="M 650.344,850.125 C 653.548,848.172 652.102,848.367 653.344,846.125" stroke-width="3.956" stroke="black" fill="none" stroke-linecap="round"></path><path d="M 653.344,846.125 C 650.292,843.443 653.048,843.172 649.344,840.125" stroke-width="4.412" stroke="black" fill="none" stroke-linecap="round"></path><path d="M 649.344,840.125 C 648.746,836.010 648.292,836.443 649.344,832.125" stroke-width="4.700" stroke="black" fill="none" stroke-linecap="round"></path><path d="M 649.344,832.125 C 650.606,829.706 649.746,829.510 651.344,827.125" stroke-width="4.958" stroke="black" fill="none" stroke-linecap="round"></path><path d="M 651.344,827.125 C 653.022,822.632 652.606,822.706 653.344,818.125" stroke-width="4.573" stroke="black" fill="none" stroke-linecap="round"></path><path d="M 653.344,818.125 C 652.573,812.895 653.522,815.632 652.344,813.125" stroke-width="4.932" stroke="black" fill="none" stroke-linecap="round"></path><path d="M 652.344,813.125 C 652.344,816.125 652.073,813.395 652.344,819.125" stroke-width="5.365" stroke="black" fill="none" stroke-linecap="round"></path><path d="M 652.344,819.125 C 652.344,831.125 652.344,831.125 652.344,843.125" stroke-width="3.654" stroke="black" fill="none" stroke-linecap="round"></path><path d="M 652.344,843.125 C 652.117,858.128 652.344,858.125 652.344,873.125" stroke-width="2.347" stroke="black" fill="none" stroke-linecap="round"></path><path d="M 652.344,873.125 C 652.998,891.123 652.617,891.128 653.344,909.125" stroke-width="1.938" stroke="black" fill="none" stroke-linecap="round"></path><path d="M 653.344,909.125 C 653.344,917.125 653.498,917.123 653.344,925.125" stroke-width="2.523" stroke="black" fill="none" stroke-linecap="round"></path><path d="M 653.344,925.125 C 653.102,932.633 653.344,932.625 653.344,940.125" stroke-width="2.778" stroke="black" fill="none" stroke-linecap="round"></path><path d="M 653.344,940.125 C 653.996,948.120 653.602,948.133 654.344,956.125" stroke-width="2.859" stroke="black" fill="none" stroke-linecap="round"></path><path d="M 654.344,956.125 C 654.344,959.625 654.496,959.620 654.344,963.125" stroke-width="3.563" stroke="black" fill="none" stroke-linecap="round"></path><path d="M 654.344,963.125 C 654.344,966.125 654.344,966.125 654.344,969.125" stroke-width="3.998" stroke="black" fill="none" stroke-linecap="round"></path><path d="M 654.344,969.125 C 654.344,973.625 654.344,973.625 654.344,978.125" stroke-width="3.914" stroke="black" fill="none" stroke-linecap="round"></path><path d="M 654.344,978.125 C 654.038,982.155 654.344,982.125 654.344,986.125" stroke-width="4.508" stroke="black" fill="none" stroke-linecap="round"></path></svg>